<?xml version="1.0" encoding="utf-8"?>
<!-- Generator: Adobe Illustrator 18.1.0, SVG Export Plug-In . SVG Version: 6.00 Build 0)  -->
<!DOCTYPE svg PUBLIC "-//W3C//DTD SVG 1.1//EN" "http://www.w3.org/Graphics/SVG/1.1/DTD/svg11.dtd">
<svg version="1.1" id="Layer_1" xmlns="http://www.w3.org/2000/svg" xmlns:xlink="http://www.w3.org/1999/xlink" x="0px" y="0px"
	 viewBox="0 0 149.6 119.4" enable-background="new 0 0 149.6 119.4" xml:space="preserve">
<g>
	<path fill="#FFFFFF" d="M55.1,66.7c-6.8,0-11.9-5.3-11.9-11.9v-0.1c0-6.6,5-12,12.1-12c4.4,0,7,1.5,9.1,3.6l-3.2,3.7
		c-1.8-1.6-3.6-2.6-5.9-2.6c-3.9,0-6.7,3.2-6.7,7.2v0.1c0,4,2.7,7.3,6.7,7.3c2.6,0,4.3-1.1,6.1-2.7l3.2,3.3
		C62.2,65.1,59.5,66.7,55.1,66.7z"/>
	<path fill="#FFFFFF" d="M79.2,66.7c-7.1,0-12.3-5.3-12.3-11.9v-0.1c0-6.6,5.2-12,12.3-12s12.3,5.3,12.3,11.9v0.1
		C91.5,61.3,86.3,66.7,79.2,66.7z M86.2,54.7c0-4-2.9-7.3-7-7.3c-4.1,0-6.9,3.2-6.9,7.2v0.1c0,4,2.9,7.3,7,7.3S86.2,58.8,86.2,54.7
		L86.2,54.7z"/>
	<path fill="#FFFFFF" d="M105.1,66.3h-9V43.2h9c7.3,0,12.3,5,12.3,11.5v0.1C117.4,61.2,112.4,66.3,105.1,66.3z M112.1,54.7
		c0-4.1-2.8-7-7-7h-3.9v14h3.9C109.2,61.7,112.1,58.9,112.1,54.7L112.1,54.7z"/>
	<path fill="#FFFFFF" d="M121.9,66.3V43.2h17.5v4.5H127v4.7h10.9v4.5H127v4.9h12.6v4.5H121.9z"/>
</g>
<g>
	<path fill="#FFFFFF" d="M46.7,73.7v17.9h-2V73.7H46.7z"/>
	<path fill="#FFFFFF" d="M58.3,81.7c4,0.9,5.8,2.3,5.8,5.1c0,3.1-2.6,5.1-6.1,5.1c-2.8,0-5.2-0.9-7.3-2.9l1.3-1.5
		c1.9,1.7,3.7,2.5,6.1,2.5c2.4,0,4-1.3,4-3.1c0-1.7-0.9-2.6-4.7-3.4c-4.1-0.9-6-2.2-6-5.2c0-2.9,2.5-4.9,5.9-4.9
		c2.6,0,4.5,0.7,6.3,2.2l-1.2,1.6c-1.7-1.4-3.3-1.9-5.2-1.9c-2.3,0-3.8,1.3-3.8,2.9C53.5,79.9,54.4,80.9,58.3,81.7z"/>
	<path fill="#FFFFFF" d="M68.3,73.7h2v16h10.1v1.9H68.3V73.7z"/>
	<path fill="#FFFFFF" d="M100.8,91.6h-2.2l-2.1-4.7h-9.7l-2.1,4.7h-2.1l8.2-18h1.9L100.8,91.6z M91.7,76l-4.1,9.1h8.2L91.7,76z"/>
	<path fill="#FFFFFF" d="M117.5,73.7h2v17.9h-1.6L106.3,77v14.7h-2V73.7h1.9l11.3,14.4V73.7z"/>
	<path fill="#FFFFFF" d="M130.8,91.6h-6.2V73.7h6.2c5.6,0,9.5,3.9,9.5,8.9C140.3,87.7,136.4,91.6,130.8,91.6z M130.8,75.6h-4.2v14.2
		h4.2c4.5,0,7.4-3.1,7.4-7.1C138.2,78.7,135.3,75.6,130.8,75.6z"/>
</g>
<path fill="#FFFFFF" d="M32.3,35.1H15.5c0,0-1.7,34-5.7,57h28.1C33.9,69.1,32.3,35.1,32.3,35.1z"/>
<path fill="#FFFFFF" d="M23.5,14c-2.3,2.2-4.5,2.6-4.5,2.6v2.5h9v-2.5C28,16.6,25.8,16.2,23.5,14z"/>
<path fill="#D82375" d="M29.9,22.9"/>
<path fill="#FEDD44" d="M22.1,20.1L20,22v12.2h7V22l-1.6-1.8H22.1z M31.3,34.1c0-5,0-11.2,0-11.2l-3.4-2.8h-1.5l1.6,1.6v12.4H31.3z
	 M19.8,20.1l-3.2,2.6c-0.2,7-0.1,6.4-0.1,11.4H19V21.7l2.1-1.6H19.8z"/>
<g>
	<path fill="#FFFFFF" d="M14,105.9h-0.7l-0.6-1.4h-3l-0.6,1.4H8.4l2.5-5.5h0.6L14,105.9z M11.2,101.2l-1.2,2.8h2.5L11.2,101.2z"/>
	<path fill="#FFFFFF" d="M19.8,106c-1.6,0-2.7-1.2-2.7-2.8c0-1.6,1.1-2.8,2.7-2.8c1,0,1.6,0.3,2.1,0.9l-0.4,0.4
		c-0.5-0.4-1-0.7-1.7-0.7c-1.2,0-2.1,1-2.1,2.2c0,1.3,0.9,2.2,2.1,2.2c0.7,0,1.2-0.3,1.8-0.8L22,105C21.4,105.6,20.8,106,19.8,106z"
		/>
	<path fill="#FFFFFF" d="M25.4,106c-1.7,0-2.8-1.3-2.8-2.8c0-1.5,1.1-2.8,2.8-2.8c1.7,0,2.8,1.3,2.8,2.8
		C28.2,104.7,27.1,106,25.4,106z M25.4,101c-1.2,0-2.1,1-2.1,2.2c0,1.2,0.9,2.2,2.1,2.2c1.2,0,2.1-1,2.1-2.2
		C27.6,102,26.7,101,25.4,101z"/>
	<path fill="#FFFFFF" d="M31.4,105.9h-1.9v-5.4h1.9c1.7,0,2.9,1.2,2.9,2.7C34.3,104.7,33.1,105.9,31.4,105.9z M31.4,101h-1.3v4.3
		h1.3c1.4,0,2.2-0.9,2.2-2.1C33.7,102,32.8,101,31.4,101z"/>
	<path fill="#FFFFFF" d="M39.5,101h-3.3v1.9h3v0.6h-3v1.9h3.4v0.6h-4v-5.4h3.9V101z"/>
	<path fill="#FFFFFF" d="M47,101h-3.3v1.9h2.9v0.6h-2.9v2.4h-0.6v-5.4H47V101z"/>
	<path fill="#FFFFFF" d="M50.6,106c-1.7,0-2.8-1.3-2.8-2.8c0-1.5,1.1-2.8,2.8-2.8c1.7,0,2.8,1.3,2.8,2.8
		C53.4,104.7,52.3,106,50.6,106z M50.6,101c-1.2,0-2.1,1-2.1,2.2c0,1.2,0.9,2.2,2.1,2.2s2.1-1,2.1-2.2C52.7,102,51.8,101,50.6,101z"
		/>
	<path fill="#FFFFFF" d="M58.4,105.9l-1.6-2.1h-1.6v2.1h-0.6v-5.4H57c1.2,0,2,0.6,2,1.6c0,0.9-0.6,1.4-1.5,1.6l1.7,2.2H58.4z
		 M57,101h-1.7v2.2H57c0.8,0,1.4-0.4,1.4-1.1C58.3,101.5,57.8,101,57,101z"/>
	<path fill="#FFFFFF" d="M67.7,105.9H67l-0.6-1.4h-3l-0.6,1.4h-0.6l2.5-5.5h0.6L67.7,105.9z M64.9,101.2l-1.2,2.8h2.5L64.9,101.2z"
		/>
	<path fill="#FFFFFF" d="M71.3,104.4L71.3,104.4l-2-2.9v4.4h-0.6v-5.4h0.6l2,3l2-3h0.6v5.4h-0.6v-4.4L71.3,104.4z"/>
	<path fill="#FFFFFF" d="M79.4,101h-3.3v1.9h3v0.6h-3v1.9h3.4v0.6h-4v-5.4h3.9V101z"/>
	<path fill="#FFFFFF" d="M84.4,105.9l-1.6-2.1h-1.6v2.1h-0.6v-5.4H83c1.2,0,2,0.6,2,1.6c0,0.9-0.6,1.4-1.5,1.6l1.7,2.2H84.4z
		 M82.9,101h-1.7v2.2h1.7c0.8,0,1.4-0.4,1.4-1.1C84.3,101.5,83.8,101,82.9,101z"/>
	<path fill="#FFFFFF" d="M86.9,100.5v5.4h-0.6v-5.4H86.9z"/>
	<path fill="#FFFFFF" d="M91,106c-1.6,0-2.7-1.2-2.7-2.8c0-1.6,1.1-2.8,2.7-2.8c1,0,1.6,0.3,2.1,0.9l-0.4,0.4
		c-0.5-0.4-1-0.7-1.7-0.7c-1.2,0-2.1,1-2.1,2.2c0,1.3,0.9,2.2,2.1,2.2c0.7,0,1.2-0.3,1.8-0.8l0.4,0.4C92.6,105.6,92,106,91,106z"/>
	<path fill="#FFFFFF" d="M99.3,105.9h-0.7l-0.6-1.4h-3l-0.6,1.4h-0.6l2.5-5.5h0.6L99.3,105.9z M96.5,101.2l-1.2,2.8h2.5L96.5,101.2z
		"/>
	<path fill="#FFFFFF" d="M104.6,104h-1.3v1.9h-0.6v-5.4h2c1.2,0,2,0.7,2,1.7C106.8,103.4,105.8,104,104.6,104z M104.7,101h-1.4v2.4
		h1.3c0.9,0,1.5-0.5,1.5-1.2C106.1,101.5,105.6,101,104.7,101z"/>
	<path fill="#FFFFFF" d="M112.4,105.9h-0.7l-0.6-1.4h-3l-0.6,1.4h-0.6l2.5-5.5h0.6L112.4,105.9z M109.6,101.2l-1.2,2.8h2.5
		L109.6,101.2z"/>
	<path fill="#FFFFFF" d="M117.2,105.9l-1.6-2.1h-1.6v2.1h-0.6v-5.4h2.3c1.2,0,2,0.6,2,1.6c0,0.9-0.6,1.4-1.5,1.6l1.7,2.2H117.2z
		 M115.7,101h-1.7v2.2h1.7c0.8,0,1.4-0.4,1.4-1.1C117.1,101.5,116.6,101,115.7,101z"/>
	<path fill="#FFFFFF" d="M121.1,105.9h-0.6V101h-1.8v-0.6h4.3v0.6h-1.8V105.9z"/>
	<path fill="#FFFFFF" d="M128,100.5h0.6v5.4h-0.5l-3.5-4.5v4.5H124v-5.4h0.6l3.4,4.4V100.5z"/>
	<path fill="#FFFFFF" d="M134.1,101h-3.3v1.9h3v0.6h-3v1.9h3.4v0.6h-4v-5.4h3.9V101z"/>
	<path fill="#FFFFFF" d="M139.1,105.9l-1.6-2.1H136v2.1h-0.6v-5.4h2.3c1.2,0,2,0.6,2,1.6c0,0.9-0.6,1.4-1.5,1.6l1.7,2.2H139.1z
		 M137.6,101H136v2.2h1.7c0.8,0,1.4-0.4,1.4-1.1C139,101.5,138.5,101,137.6,101z"/>
</g>
</svg>
