<?xml version="1.0" encoding="UTF-8" standalone="no"?>
<svg width="843px" height="478px" viewBox="0 0 843 478" version="1.1" xmlns="http://www.w3.org/2000/svg" xmlns:xlink="http://www.w3.org/1999/xlink" xmlns:sketch="http://www.bohemiancoding.com/sketch/ns">
    <!-- Generator: Sketch 3.2.2 (9983) - http://www.bohemiancoding.com/sketch -->
    <title>code-island-og-light</title>
    <desc>Created with Sketch.</desc>
    <defs></defs>
    <g id="Page-1" stroke="none" stroke-width="1" fill="none" fill-rule="evenodd" sketch:type="MSPage">
        <g id="code-island-og-light" sketch:type="MSArtboardGroup">
            <g id="Group" sketch:type="MSLayerGroup" transform="translate(120.000000, 152.000000)" fill="#2F3D4A">
                <g id="CODE-+-ISLAND" transform="translate(210.000000, 0.000000)" sketch:type="MSShapeGroup">
                    <path d="M109.658073,101.401089 L93.1305911,84.6814638 C83.8549636,93.1257191 75.5912227,98.5300426 62.0994008,98.5300426 C41.861668,98.5300426 27.8639028,81.6415319 27.8639028,61.3753191 L27.8639028,61.0375489 C27.8639028,40.7713362 42.1989636,24.2205957 62.0994008,24.2205957 C73.9047449,24.2205957 83.1803725,29.2871489 92.2873522,37.5625191 L108.814834,18.4785021 C97.8527287,7.66985532 84.5295547,0.238910638 62.2680486,0.238910638 C26.0087773,0.238910638 0.711611336,27.767183 0.711611336,61.3753191 L0.711611336,61.7130894 C0.711611336,95.6589957 26.5147206,122.511728 61.2561619,122.511728 C84.0236113,122.511728 97.5154332,114.405243 109.658073,101.401089 L109.658073,101.401089 Z M250.647611,61.3753191 L250.647611,61.0375489 C250.647611,27.4294128 224.507206,0.238910638 188.079287,0.238910638 C151.651368,0.238910638 125.173668,27.767183 125.173668,61.3753191 L125.173668,61.7130894 C125.173668,95.3212255 151.314073,122.511728 187.741992,122.511728 C224.169911,122.511728 250.647611,94.9834553 250.647611,61.3753191 L250.647611,61.3753191 Z M223.49532,61.7130894 C223.49532,81.9793021 208.991611,98.5300426 188.079287,98.5300426 C167.166964,98.5300426 152.32596,81.6415319 152.32596,61.3753191 L152.32596,61.0375489 C152.32596,40.7713362 166.829668,24.2205957 187.741992,24.2205957 C208.654316,24.2205957 223.49532,41.1091064 223.49532,61.3753191 L223.49532,61.7130894 Z M382.53017,61.3753191 L382.53017,61.0375489 C382.53017,27.767183 356.895709,2.26553191 319.793198,2.26553191 L273.752356,2.26553191 L273.752356,120.485106 L319.793198,120.485106 C356.895709,120.485106 382.53017,94.6456851 382.53017,61.3753191 L382.53017,61.3753191 Z M355.377879,61.7130894 C355.377879,82.6548426 341.042818,97.0100766 319.793198,97.0100766 L299.724113,97.0100766 L299.724113,25.7405617 L319.793198,25.7405617 C341.042818,25.7405617 355.377879,40.433566 355.377879,61.3753191 L355.377879,61.7130894 Z M495.524178,120.485106 L495.524178,97.3478468 L431.438024,97.3478468 L431.438024,72.5217362 L487.091789,72.5217362 L487.091789,49.3844766 L431.438024,49.3844766 L431.438024,25.4027915 L494.680939,25.4027915 L494.680939,2.26553191 L405.634915,2.26553191 L405.634915,120.485106 L495.524178,120.485106 Z" id="CODE"></path>
                    <path d="M6.75413765,147.671489 L6.75413765,239.940426 L17.1527126,239.940426 L17.1527126,147.671489 L6.75413765,147.671489 Z M52.1656356,170.738723 C52.1656356,162.302706 59.8000324,155.712068 71.7781377,155.712068 C81.2553198,155.712068 89.8111093,158.743762 98.3668988,165.729838 L104.421765,157.68926 C95.0762105,150.175932 85.4674008,146.353362 72.0413927,146.353362 C54.5349312,146.353362 41.7670607,156.898383 41.7670607,171.661413 C41.7670607,186.951694 51.507498,193.805957 72.6995304,198.419404 C92.0487773,202.5056 96.6557409,207.382672 96.6557409,216.082315 C96.6557409,225.441021 88.494834,231.899847 76.1218462,231.899847 C63.3539757,231.899847 54.1400486,227.550026 44.5312389,218.850383 L38.0814899,226.495523 C49.1382024,236.381481 61.1163077,241.258553 75.7269636,241.258553 C94.0231903,241.258553 107.185943,230.977157 107.185943,215.027813 C107.185943,200.792034 97.7087611,193.278706 77.1748664,188.797072 C56.9042267,184.447251 52.1656356,179.570179 52.1656356,170.738723 L52.1656356,170.738723 Z M128.377976,239.940426 L190.637798,239.940426 L190.637798,230.318094 L138.776551,230.318094 L138.776551,147.671489 L128.377976,147.671489 L128.377976,239.940426 Z M253.687385,147.012426 L243.946947,147.012426 L201.957765,239.940426 L212.619595,239.940426 L223.54468,215.555064 L273.694769,215.555064 L284.488227,239.940426 L295.676567,239.940426 L253.687385,147.012426 Z M269.614316,206.196357 L227.625134,206.196357 L248.685538,159.1392 L269.614316,206.196357 Z M381.629344,221.618451 L323.581603,147.671489 L313.841166,147.671489 L313.841166,239.940426 L323.976486,239.940426 L323.976486,164.279898 L383.47213,239.940426 L391.764664,239.940426 L391.764664,147.671489 L381.629344,147.671489 L381.629344,221.618451 Z M498.777846,193.674145 C498.777846,167.575217 478.770462,147.671489 449.812405,147.671489 L417.826915,147.671489 L417.826915,239.940426 L449.812405,239.940426 C478.770462,239.940426 498.777846,219.773072 498.777846,193.674145 L498.777846,193.674145 Z M487.984389,193.93777 C487.984389,214.500562 473.110478,230.318094 449.812405,230.318094 L428.22549,230.318094 L428.22549,157.293821 L449.812405,157.293821 C473.110478,157.293821 487.984389,173.374979 487.984389,193.93777 L487.984389,193.93777 Z" id="ISLAND"></path>
                </g>
                <path d="M16.3238624,276.234756 L13.250158,276.234756 L0,305.51802 L3.36446018,305.51802 L6.81199345,297.833759 L22.6374173,297.833759 L26.043414,305.51802 L29.5740203,305.51802 L16.3238624,276.234756 Z M21.3497844,294.884665 L8.09962636,294.884665 L14.7454736,280.056118 L21.3497844,294.884665 Z M72.6889545,300.907464 L70.5290541,298.7891 C67.7461056,301.447439 65.1293032,302.984291 61.1417949,302.984291 C54.7451669,302.984291 49.8853911,297.70915 49.8853911,290.938693 C49.8853911,284.168236 54.7036303,278.976168 61.1417949,278.976168 C65.0877667,278.976168 67.8291787,280.63763 70.2798349,282.963676 L72.5228083,280.554557 C69.6152501,277.813145 66.4584727,275.944 61.1833314,275.944 C52.6268031,275.944 46.4793943,282.714457 46.4793943,291.021766 C46.4793943,299.412148 52.6683396,306.016459 61.0587218,306.016459 C66.3338631,306.016459 69.6567867,303.981168 72.6889545,300.907464 L72.6889545,300.907464 Z M106.790458,290.938693 C106.790458,282.880603 100.850732,275.944 92.0034481,275.944 C83.156164,275.944 77.1333649,282.963676 77.1333649,291.021766 C77.1333649,299.079856 83.0730909,306.016459 91.920375,306.016459 C100.767659,306.016459 106.790458,298.996783 106.790458,290.938693 L106.790458,290.938693 Z M103.384462,291.021766 C103.384462,297.667613 98.6492954,302.984291 92.0034481,302.984291 C85.3576009,302.984291 80.5393616,297.58454 80.5393616,290.938693 C80.5393616,284.292846 85.2745278,278.976168 91.920375,278.976168 C98.5662223,278.976168 103.384462,284.375919 103.384462,291.021766 L103.384462,291.021766 Z M139.272037,290.938693 C139.272037,282.714457 132.958482,276.442439 123.820442,276.442439 L113.727061,276.442439 L113.727061,305.51802 L123.820442,305.51802 C132.958482,305.51802 139.272037,299.162929 139.272037,290.938693 L139.272037,290.938693 Z M135.86604,291.021766 C135.86604,297.501467 131.17241,302.485853 123.820442,302.485853 L117.008448,302.485853 L117.008448,279.474606 L123.820442,279.474606 C131.17241,279.474606 135.86604,284.542065 135.86604,291.021766 L135.86604,291.021766 Z M167.226132,276.442439 L146.20864,276.442439 L146.20864,305.51802 L167.433815,305.51802 L167.433815,302.527389 L149.490027,302.527389 L149.490027,292.350935 L165.356987,292.350935 L165.356987,289.360304 L149.490027,289.360304 L149.490027,279.43307 L167.226132,279.43307 L167.226132,276.442439 Z M207.391971,276.442439 L186.499089,276.442439 L186.499089,305.51802 L189.780476,305.51802 L189.780476,292.849374 L205.522827,292.849374 L205.522827,289.858743 L189.780476,289.858743 L189.780476,279.474606 L207.391971,279.474606 L207.391971,276.442439 Z M242.116523,290.938693 C242.116523,282.880603 236.176797,275.944 227.329513,275.944 C218.482229,275.944 212.45943,282.963676 212.45943,291.021766 C212.45943,299.079856 218.399156,306.016459 227.24644,306.016459 C236.093724,306.016459 242.116523,298.996783 242.116523,290.938693 L242.116523,290.938693 Z M238.710527,291.021766 C238.710527,297.667613 233.97536,302.984291 227.329513,302.984291 C220.683666,302.984291 215.865427,297.58454 215.865427,290.938693 C215.865427,284.292846 220.600593,278.976168 227.24644,278.976168 C233.892287,278.976168 238.710527,284.375919 238.710527,291.021766 L238.710527,291.021766 Z M273.102786,305.51802 L264.172429,293.638568 C268.741449,292.807837 272.064373,289.983352 272.064373,285.123577 C272.064373,279.889972 267.952255,276.442439 261.555627,276.442439 L249.053126,276.442439 L249.053126,305.51802 L252.334514,305.51802 L252.334514,294.22008 L260.641823,294.22008 L269.073741,305.51802 L273.102786,305.51802 Z M268.741449,285.248186 C268.741449,289.028012 265.626208,291.270985 261.264871,291.270985 L252.334514,291.270985 L252.334514,279.474606 L261.306407,279.474606 C266.000037,279.474606 268.741449,281.634507 268.741449,285.248186 L268.741449,285.248186 Z M305.376682,276.234756 L302.302978,276.234756 L289.05282,305.51802 L292.41728,305.51802 L295.864813,297.833759 L311.690237,297.833759 L315.096234,305.51802 L318.62684,305.51802 L305.376682,276.234756 Z M310.402604,294.884665 L297.152446,294.884665 L303.798293,280.056118 L310.402604,294.884665 Z M348.906982,281.966799 L348.906982,305.51802 L352.188369,305.51802 L352.188369,276.442439 L348.865445,276.442439 L338.273626,292.309399 L327.681807,276.442439 L324.358883,276.442439 L324.358883,305.51802 L327.557197,305.51802 L327.557197,282.008336 L338.149016,297.543004 L338.315163,297.543004 L348.906982,281.966799 Z M381.430097,276.442439 L360.412605,276.442439 L360.412605,305.51802 L381.637779,305.51802 L381.637779,302.527389 L363.693992,302.527389 L363.693992,292.350935 L379.560952,292.350935 L379.560952,289.360304 L363.693992,289.360304 L363.693992,279.43307 L381.430097,279.43307 L381.430097,276.442439 Z M412.29175,305.51802 L403.361393,293.638568 C407.930413,292.807837 411.253336,289.983352 411.253336,285.123577 C411.253336,279.889972 407.141218,276.442439 400.74459,276.442439 L388.24209,276.442439 L388.24209,305.51802 L391.523477,305.51802 L391.523477,294.22008 L399.830786,294.22008 L408.262705,305.51802 L412.29175,305.51802 Z M407.930413,285.248186 C407.930413,289.028012 404.815172,291.270985 400.453835,291.270985 L391.523477,291.270985 L391.523477,279.474606 L400.495371,279.474606 C405.189001,279.474606 407.930413,281.634507 407.930413,285.248186 L407.930413,285.248186 Z M418.563768,276.442439 L418.563768,305.51802 L421.845155,305.51802 L421.845155,276.442439 L418.563768,276.442439 Z M455.282074,300.907464 L453.122174,298.7891 C450.339226,301.447439 447.722423,302.984291 443.734915,302.984291 C437.338287,302.984291 432.478511,297.70915 432.478511,290.938693 C432.478511,284.168236 437.29675,278.976168 443.734915,278.976168 C447.680887,278.976168 450.422299,280.63763 452.872955,282.963676 L455.115928,280.554557 C452.20837,277.813145 449.051593,275.944 443.776451,275.944 C435.219923,275.944 429.072514,282.714457 429.072514,291.021766 C429.072514,299.412148 435.26146,306.016459 443.651842,306.016459 C448.926983,306.016459 452.249907,303.981168 455.282074,300.907464 L455.282074,300.907464 Z M474.845787,276.234756 L471.772083,276.234756 L458.521925,305.51802 L461.886385,305.51802 L465.333918,297.833759 L481.159342,297.833759 L484.565339,305.51802 L488.095945,305.51802 L474.845787,276.234756 Z M479.871709,294.884665 L466.621551,294.884665 L473.267399,280.056118 L479.871709,294.884665 Z M528.054102,285.705088 C528.054102,279.931508 523.734301,276.442439 517.171527,276.442439 L506.288952,276.442439 L506.288952,305.51802 L509.570339,305.51802 L509.570339,295.258494 L516.631552,295.258494 C522.820497,295.258494 528.054102,292.018643 528.054102,285.705088 L528.054102,285.705088 Z M524.731178,285.829698 C524.731178,289.692597 521.574401,292.267862 516.756162,292.267862 L509.570339,292.267862 L509.570339,279.474606 L516.922308,279.474606 C521.615938,279.474606 524.731178,281.634507 524.731178,285.829698 L524.731178,285.829698 Z M547.867034,276.234756 L544.79333,276.234756 L531.543172,305.51802 L534.907632,305.51802 L538.355165,297.833759 L554.180589,297.833759 L557.586586,305.51802 L561.117192,305.51802 L547.867034,276.234756 Z M552.892956,294.884665 L539.642798,294.884665 L546.288646,280.056118 L552.892956,294.884665 Z M590.898895,305.51802 L581.968538,293.638568 C586.537558,292.807837 589.860482,289.983352 589.860482,285.123577 C589.860482,279.889972 585.748364,276.442439 579.351736,276.442439 L566.849236,276.442439 L566.849236,305.51802 L570.130623,305.51802 L570.130623,294.22008 L578.437932,294.22008 L586.86985,305.51802 L590.898895,305.51802 Z M586.537558,285.248186 C586.537558,289.028012 583.422317,291.270985 579.06098,291.270985 L570.130623,291.270985 L570.130623,279.474606 L579.102516,279.474606 C583.796146,279.474606 586.537558,281.634507 586.537558,285.248186 L586.537558,285.248186 Z M607.887342,279.474606 L617.648431,279.474606 L617.648431,276.442439 L594.803331,276.442439 L594.803331,279.474606 L604.564419,279.474606 L604.564419,305.51802 L607.887342,305.51802 L607.887342,279.474606 Z M645.18716,299.744441 L626.869544,276.442439 L623.795839,276.442439 L623.795839,305.51802 L626.994153,305.51802 L626.994153,281.676043 L645.768672,305.51802 L648.385474,305.51802 L648.385474,276.442439 L645.18716,276.442439 L645.18716,299.744441 Z M677.627202,276.442439 L656.60971,276.442439 L656.60971,305.51802 L677.834885,305.51802 L677.834885,302.527389 L659.891097,302.527389 L659.891097,292.350935 L675.758058,292.350935 L675.758058,289.360304 L659.891097,289.360304 L659.891097,279.43307 L677.627202,279.43307 L677.627202,276.442439 Z M708.488855,305.51802 L699.558498,293.638568 C704.127518,292.807837 707.450442,289.983352 707.450442,285.123577 C707.450442,279.889972 703.338324,276.442439 696.941696,276.442439 L684.439196,276.442439 L684.439196,305.51802 L687.720583,305.51802 L687.720583,294.22008 L696.027892,294.22008 L704.459811,305.51802 L708.488855,305.51802 Z M704.127518,285.248186 C704.127518,289.028012 701.012277,291.270985 696.65094,291.270985 L687.720583,291.270985 L687.720583,279.474606 L696.692477,279.474606 C701.386106,279.474606 704.127518,281.634507 704.127518,285.248186 L704.127518,285.248186 Z" id="A-CODE-FOR-AMERICA-P" sketch:type="MSShapeGroup"></path>
            </g>
            <g id="Imported-Layers" sketch:type="MSLayerGroup" transform="translate(10.000000, 12.000000)">
                <path d="M1.00330522,100.060763 L0.906678715,30.4450847 L164.95594,51.4932203 L165.047735,79.2541525 L1.00330522,100.060763" id="Fill-1" fill="#F9DA57" sketch:type="MSShapeGroup"></path>
                <path d="M400.692406,30.4450847 L400.692406,100.060763 L236.646365,79.0754237 L236.646365,51.3048305 L400.692406,30.4450847" id="Fill-2" fill="#F9DA57" sketch:type="MSShapeGroup"></path>
                <path d="M142.799482,32.9988136 C141.839659,33.4738136 141.308213,34.2933898 141.308213,35.3480508 C141.308213,36.745678 142.416197,37.8534746 143.862373,37.8534746 L257.690008,37.8534746 C259.087871,37.8534746 260.282819,36.745678 260.282819,35.3480508 C260.282819,34.2933898 259.657968,33.4738136 258.78994,32.9988136 L200.801153,0.426694915 L142.799482,32.9988136" id="Fill-3" fill="#7AAEC7" sketch:type="MSShapeGroup"></path>
                <path d="M289.109727,379.52822 L250.33351,102.31661 L260.282819,102.31661 C263.210602,102.31661 265.568289,99.9673729 265.568289,97.1801695 C265.568289,94.2512712 263.210602,91.9020339 260.282819,91.9020339 L141.308213,91.9020339 C138.38204,91.9020339 136.025964,94.2512712 136.025964,97.1801695 C136.025964,99.9673729 138.38204,102.31661 141.308213,102.31661 L151.257522,102.31661 L112.479695,379.52822 L289.109727,379.52822" id="Fill-4" fill="#7AAEC7" sketch:type="MSShapeGroup"></path>
            </g>
        </g>
    </g>
</svg>