<?xml version="1.0" encoding="utf-8"?>
<!-- Generator: Adobe Illustrator 15.1.0, SVG Export Plug-In  -->
<!DOCTYPE svg PUBLIC "-//W3C//DTD SVG 1.1//EN" "http://www.w3.org/Graphics/SVG/1.1/DTD/svg11.dtd" [
	<!ENTITY ns_flows "http://ns.adobe.com/Flows/1.0/">
]>
<svg version="1.1"
	 xmlns="http://www.w3.org/2000/svg" xmlns:xlink="http://www.w3.org/1999/xlink" xmlns:a="http://ns.adobe.com/AdobeSVGViewerExtensions/3.0/"
	 x="0px" y="0px" width="216px" height="86px" viewBox="0 -17.831 216 86"
	 overflow="visible" enable-background="new 0 -17.831 216 86" xml:space="preserve">
<defs>
</defs>
<path fill="#FFFFFF" d="M64.999,4.96c-1.426,0-2.536,0.587-3.334,1.759c-0.797,1.172-1.197,2.786-1.197,4.845
	c0,4.28,1.622,6.42,4.864,6.42c0.98,0,1.928-0.137,2.848-0.411c0.919-0.273,1.844-0.604,2.772-0.989v5.082
	c-1.849,0.822-3.938,1.232-6.271,1.232c-3.344,0-5.905-0.974-7.689-2.921c-1.781-1.948-2.673-4.763-2.673-8.445
	c0-2.303,0.432-4.326,1.295-6.071c0.865-1.745,2.107-3.086,3.727-4.023c1.622-0.938,3.528-1.408,5.72-1.408
	c2.393,0,4.681,0.521,6.862,1.567L70.088,6.33c-0.817-0.386-1.636-0.709-2.453-0.974C66.816,5.093,65.937,4.96,64.999,4.96z"/>
<path fill="#FFFFFF" d="M96.769,11.443c0,3.742-0.915,6.587-2.741,8.536c-1.829,1.947-4.505,2.921-8.03,2.921
	c-3.475,0-6.138-0.979-7.989-2.936c-1.854-1.958-2.78-4.808-2.78-8.551c0-3.703,0.92-6.53,2.764-8.483
	C79.833,0.978,82.514,0,86.028,0c3.523,0,6.194,0.969,8.013,2.906C95.86,4.844,96.769,7.689,96.769,11.443z M81.529,11.443
	c0,4.301,1.488,6.451,4.468,6.451c1.515,0,2.639-0.523,3.37-1.567c0.733-1.044,1.1-2.673,1.1-4.884c0-2.222-0.371-3.862-1.113-4.922
	C88.611,5.46,87.503,4.93,86.028,4.93C83.028,4.93,81.529,7.101,81.529,11.443z"/>
<path fill="#FFFFFF" d="M120.343,11c0,3.713-1.018,6.574-3.053,8.582c-2.035,2.009-4.896,3.014-8.581,3.014h-7.165V0.351h7.665
	c3.554,0,6.299,0.912,8.232,2.739C119.377,4.915,120.343,7.552,120.343,11z M114.132,11.214c0-2.039-0.401-3.55-1.205-4.534
	c-0.803-0.984-2.023-1.476-3.658-1.476h-1.742v12.462h1.333c1.82,0,3.151-0.53,4-1.59C113.708,15.016,114.132,13.395,114.132,11.214
	z"/>
<path fill="#FFFFFF" d="M138.237,22.596h-13.15V0.351h13.15v4.823h-7.165v3.5h6.634v4.822h-6.634v4.2h7.165V22.596z"/>
<path fill="#FFFFFF" d="M54.318,43.955V25.396h2.148v18.559H54.318z"/>
<path fill="#FFFFFF" d="M71.962,39.017c0,1.633-0.591,2.907-1.771,3.82c-1.179,0.915-2.779,1.372-4.803,1.372
	c-2.19,0-3.875-0.284-5.054-0.85v-2.083c0.758,0.323,1.583,0.576,2.476,0.763c0.895,0.186,1.777,0.279,2.654,0.279
	c1.432,0,2.511-0.273,3.235-0.818c0.725-0.548,1.087-1.306,1.087-2.279c0-0.644-0.129-1.17-0.386-1.581
	c-0.257-0.409-0.685-0.788-1.288-1.136c-0.603-0.348-1.521-0.74-2.749-1.18c-1.718-0.618-2.946-1.35-3.684-2.196
	c-0.738-0.846-1.107-1.951-1.107-3.313c0-1.431,0.536-2.569,1.605-3.415c1.071-0.847,2.485-1.27,4.247-1.27
	c1.836,0,3.525,0.338,5.068,1.015l-0.671,1.878c-1.524-0.642-3.007-0.963-4.448-0.963c-1.138,0-2.025,0.245-2.665,0.735
	c-0.642,0.491-0.961,1.173-0.961,2.044c0,0.643,0.117,1.17,0.354,1.581c0.234,0.41,0.633,0.788,1.194,1.13
	c0.559,0.342,1.417,0.72,2.572,1.136c1.936,0.693,3.27,1.438,3.999,2.233C71.597,36.715,71.962,37.748,71.962,39.017z"/>
<path fill="#FFFFFF" d="M75.352,43.955V25.396h2.147V42h8.152v1.955H75.352z"/>
<path fill="#FFFFFF" d="M101.78,43.955l-2.3-5.902h-7.406l-2.275,5.902h-2.173L94.93,25.32h1.809l7.266,18.635H101.78z M98.81,36.11
	l-2.149-5.75c-0.276-0.728-0.563-1.62-0.857-2.678c-0.186,0.813-0.451,1.706-0.798,2.678l-2.173,5.75H98.81z"/>
<path fill="#FFFFFF" d="M120.976,43.955h-2.451l-10.097-15.576h-0.102c0.135,1.828,0.202,3.503,0.202,5.026v10.55h-1.984V25.396
	h2.426l10.073,15.513h0.102c-0.017-0.229-0.055-0.963-0.114-2.203c-0.06-1.24-0.08-2.126-0.062-2.66v-10.65h2.008V43.955z"/>
<path fill="#FFFFFF" d="M138.438,34.498c0,3.063-0.829,5.405-2.484,7.027c-1.655,1.62-4.037,2.43-7.146,2.43h-5.119V25.396h5.663
	c2.874,0,5.104,0.8,6.697,2.398C137.64,29.395,138.438,31.63,138.438,34.498z M136.162,34.574c0-2.42-0.604-4.244-1.814-5.471
	c-1.208-1.227-3.006-1.841-5.39-1.841h-3.122v14.826h2.617c2.561,0,4.486-0.631,5.774-1.897
	C135.517,38.926,136.162,37.053,136.162,34.574z"/>
<path fill="#399FD6" d="M46.954,30.248c-12.298,10.47-16.77,5.817-16.77,5.817c-2.235-1.078-3.353-23.268-2.235-25.594
	c0.707-1.473,2.235-1.164,6.707-1.164V6.98c-4.472,0-6,0.308-6.707-1.163C26.832,3.49,26.832,1.163,26.832,0h-2.237
	c0,1.163,0,3.49-1.117,5.817C22.77,7.288,21.242,6.98,16.769,6.98v2.327c4.474,0,6.001-0.309,6.709,1.164
	c1.117,2.326,0,24.43-2.235,25.594c0,0-4.474,4.653-16.77-5.817c0,0,1.118-1.164,2.235-1.164C3.354,29.084,0,26.758,0,26.758
	s2.236,3.49,2.236,6.98c0-1.164,1.117-2.327,1.117-2.327c5.59,8.143,19.006,10.471,19.006,10.471
	c3.354,1.164,3.354,2.326,3.354,2.326s0-1.163,3.354-2.326c0,0,13.417-2.328,19.007-10.471c0,0,1.117,1.164,1.117,2.327
	c0-3.491,2.236-6.98,2.236-6.98s-2.236,2.326-6.709,2.326C45.836,29.084,46.954,30.248,46.954,30.248z"/>
</svg>
