<?xml version="1.0" encoding="utf-8"?>
<!-- Generator: Adobe Illustrator 15.1.0, SVG Export Plug-In  -->
<!DOCTYPE svg PUBLIC "-//W3C//DTD SVG 1.1//EN" "http://www.w3.org/Graphics/SVG/1.1/DTD/svg11.dtd" [
	<!ENTITY ns_flows "http://ns.adobe.com/Flows/1.0/">
]>
<svg version="1.1"
	 xmlns="http://www.w3.org/2000/svg" xmlns:xlink="http://www.w3.org/1999/xlink" xmlns:a="http://ns.adobe.com/AdobeSVGViewerExtensions/3.0/"
	 x="0px" y="0px" width="162px" height="86px" viewBox="-0.066 -17.679 162 86"
	 overflow="visible" enable-background="new -0.066 -17.679 162 86" xml:space="preserve">
<defs>
</defs>
<path fill="#399FD6" d="M54.723,35.457c-14.332,12.202-19.544,6.78-19.544,6.78c-2.605-1.256-3.907-27.118-2.605-29.829
	c0.824-1.717,2.605-1.356,7.817-1.356V8.34c-5.212,0-6.993,0.359-7.817-1.355c-1.302-2.712-1.302-5.425-1.302-6.78h-2.607
	c0,1.355,0,4.068-1.302,6.78c-0.825,1.714-2.604,1.355-7.819,1.355v2.712c5.215,0,6.994-0.361,7.819,1.356
	c1.302,2.711,0,28.472-2.604,29.829c0,0-5.215,5.422-19.546-6.78c0,0,1.304-1.356,2.606-1.356C3.908,34.101,0,31.39,0,31.39
	s2.606,4.067,2.606,8.135c0-1.356,1.302-2.712,1.302-2.712c6.515,9.491,22.15,12.203,22.15,12.203
	c3.908,1.357,3.908,2.712,3.908,2.712s0-1.355,3.909-2.712c0,0,15.637-2.712,22.151-12.203c0,0,1.303,1.356,1.303,2.712
	c0-4.068,2.605-8.135,2.605-8.135s-2.605,2.711-7.818,2.711C53.42,34.101,54.723,35.457,54.723,35.457z"/>
<path d="M74.509,3.639c-2.414,0-4.312,0.855-5.695,2.566s-2.074,4.072-2.074,7.084c0,3.152,0.665,5.537,1.995,7.155
	c1.33,1.617,3.255,2.426,5.774,2.426c1.09,0,2.145-0.109,3.164-0.326s2.08-0.494,3.182-0.834v3.604
	c-2.016,0.762-4.301,1.143-6.855,1.143c-3.762,0-6.65-1.141-8.666-3.42s-3.023-5.54-3.023-9.782c0-2.672,0.489-5.01,1.468-7.014
	s2.394-3.539,4.245-4.605s4.025-1.6,6.521-1.6c2.625,0,5.051,0.551,7.277,1.652L80.31,5.186c-0.867-0.41-1.784-0.771-2.751-1.081
	S75.575,3.639,74.509,3.639z"/>
<path d="M110.248,13.219c0,4.184-1.046,7.436-3.138,9.756s-5.054,3.48-8.886,3.48c-3.879,0-6.858-1.152-8.938-3.455
	s-3.12-5.575-3.12-9.817s1.046-7.5,3.138-9.773S94.381,0,98.26,0c3.82,0,6.773,1.154,8.859,3.463S110.248,9.023,110.248,13.219z
	 M90.631,13.219c0,3.164,0.639,5.563,1.916,7.198c1.277,1.635,3.17,2.453,5.678,2.453c2.496,0,4.38-0.809,5.651-2.426
	c1.271-1.618,1.907-4.026,1.907-7.225c0-3.152-0.63-5.543-1.89-7.172s-3.138-2.443-5.634-2.443c-2.52,0-4.421,0.814-5.704,2.443
	S90.631,10.066,90.631,13.219z"/>
<path d="M136.708,13.008c0,4.242-1.178,7.485-3.533,9.729s-5.748,3.367-10.178,3.367h-7.189v-25.7h7.945
	c4.09,0,7.271,1.102,9.545,3.305S136.708,9.012,136.708,13.008z M132.278,13.148c0-6.152-2.877-9.229-8.631-9.229h-3.639v18.651
	h2.988C129.185,22.571,132.278,19.43,132.278,13.148z"/>
<path d="M157.367,26.104H142.83v-25.7h14.537v3.551h-10.336v6.996h9.686v3.516h-9.686v8.069h10.336V26.104z"/>
<path d="M63.518,50.755V29.339h1.494v21.416H63.518z"/>
<path d="M81.896,45.232c0,1.787-0.656,3.203-1.97,4.248s-3.06,1.567-5.237,1.567c-2.617,0-4.623-0.288-6.02-0.864v-1.494
	c1.543,0.654,3.51,0.981,5.902,0.981c1.758,0,3.152-0.402,4.183-1.209c1.03-0.805,1.546-1.862,1.546-3.171
	c0-0.811-0.172-1.481-0.514-2.015c-0.342-0.531-0.898-1.018-1.67-1.457s-1.904-0.913-3.398-1.421
	c-2.188-0.752-3.698-1.564-4.533-2.438s-1.252-2.039-1.252-3.494c0-1.602,0.627-2.908,1.882-3.918
	c1.255-1.012,2.868-1.517,4.841-1.517c2.012,0,3.902,0.381,5.67,1.143l-0.543,1.289c-1.777-0.742-3.477-1.113-5.098-1.113
	c-1.582,0-2.842,0.366-3.779,1.099S70.5,33.177,70.5,34.437c0,0.791,0.145,1.44,0.433,1.948s0.759,0.965,1.413,1.37
	s1.777,0.891,3.369,1.457c1.67,0.576,2.926,1.135,3.766,1.678c0.84,0.541,1.452,1.156,1.838,1.846
	C81.704,43.423,81.896,44.256,81.896,45.232z"/>
<path d="M85.973,50.755V29.339h1.494v20.01h10.211v1.406H85.973z"/>
<path d="M113.281,43.196h-8.701l-2.988,7.559h-1.655l8.613-21.504h0.952l8.438,21.504h-1.685L113.281,43.196z M105.122,41.849h7.661
	l-2.915-7.72c-0.244-0.605-0.537-1.445-0.879-2.52c-0.264,0.938-0.552,1.787-0.864,2.549L105.122,41.849z"/>
<path d="M136.543,50.755h-1.509l-12.686-19.014h-0.117c0.117,2.266,0.176,3.975,0.176,5.127v13.887h-1.436V29.339h1.494
	l12.671,18.984h0.088c-0.088-1.758-0.132-3.428-0.132-5.01V29.339h1.45V50.755z"/>
<path d="M157.573,39.842c0,3.594-0.942,6.312-2.827,8.151c-1.885,1.842-4.653,2.762-8.306,2.762h-5.127V29.339h5.786
	c3.418,0,6.019,0.894,7.8,2.681C156.683,33.807,157.573,36.414,157.573,39.842z M155.947,39.9c0-3.066-0.778-5.373-2.337-6.921
	c-1.557-1.548-3.845-2.322-6.862-2.322h-3.94v18.779h3.545C152.749,49.437,155.947,46.258,155.947,39.9z"/>
</svg>
